<svg width="1779" height="2016" viewBox="0 0 1779 2016" fill="none" xmlns="http://www.w3.org/2000/svg">
<path d="M771.86 1407.21L771.956 1407.34M771.956 1407.34L998.99 1709.2C1024.74 1743.44 1067.34 1760.01 1109.06 1752.02L1469.61 1682.92C1522.62 1672.76 1561 1625.79 1561 1571.07V376.926C1561 322.215 1522.62 275.243 1469.61 265.084L1109.06 195.983C1067.34 187.987 1024.74 204.555 998.99 238.795L521 874.339L521 974M771.956 1407.34L1041 1023.83M771.956 1407.34L562.665 1705.67C537.269 1741.87 493.424 1759.78 450.379 1751.53L92.3901 1682.92C39.3818 1672.76 1 1625.79 1 1571.07V376.926C1 322.214 39.3818 275.243 92.3902 265.084L450.379 196.473C493.425 188.223 537.269 206.129 562.666 242.33L771.86 540.524M1041 1023.83V1732.34M1041 1023.83L1041 207.125M521 974V207.125M521 974V1732.34" stroke="url(#paint0_linear_210_11675)" stroke-opacity="0.3" stroke-linejoin="round"/>
<mask id="mask0_210_11675" style="mask-type:alpha" maskUnits="userSpaceOnUse" x="10" y="259" width="1769" height="1745">
<path d="M10 525.972C10 466.342 10 436.527 20.7364 412.172C30.2028 390.699 45.4624 372.285 64.805 358.996C86.7423 343.925 116.039 338.389 174.632 327.317L472.453 271.039C518.54 262.33 541.583 257.976 563.125 261.342C582.17 264.317 600.281 271.61 616.073 282.663C633.937 295.165 647.532 314.273 674.723 352.49L884.245 646.972L1113.66 346.211C1141.13 310.194 1154.87 292.186 1172.48 280.462C1188.05 270.094 1205.73 263.313 1224.24 260.609C1245.18 257.552 1267.43 261.758 1311.94 270.169L1614.37 327.316C1672.96 338.389 1702.26 343.925 1724.2 358.996C1743.54 372.285 1758.8 390.699 1768.26 412.172C1779 436.527 1779 466.342 1779 525.972V1737.03C1779 1796.66 1779 1826.47 1768.26 1850.83C1758.8 1872.3 1743.54 1890.71 1724.2 1904C1702.26 1919.08 1672.96 1924.61 1614.37 1935.68L1311.94 1992.83C1267.43 2001.24 1245.18 2005.45 1224.24 2002.39C1205.73 1999.69 1188.05 1992.91 1172.48 1982.54C1154.87 1970.81 1141.13 1952.81 1113.66 1916.79L884.245 1616.03L674.723 1910.51C647.532 1948.73 633.937 1967.83 616.073 1980.34C600.281 1991.39 582.17 1998.68 563.125 2001.66C541.583 2005.02 518.54 2000.67 472.453 1991.96L174.633 1935.68C116.039 1924.61 86.7423 1919.08 64.805 1904C45.4624 1890.71 30.2028 1872.3 20.7364 1850.83C10 1826.47 10 1796.66 10 1737.03V525.972Z" fill="#D9D9D9"/>
</mask>
<g mask="url(#mask0_210_11675)">
<path d="M1189.35 2016L599.685 1242.93V247L1779.02 1904.57L1189.35 2016Z" fill="white" fill-opacity="0.01"/>
<path d="M10 358.433L599.667 247V2016L10 1904.57V358.433Z" fill="white" fill-opacity="0.02"/>
<path d="M1189.32 247L1778.98 358.433V1904.57L1189.32 2016V247Z" fill="white" fill-opacity="0.02"/>
<path d="M1189.35 247L599.685 1020.07V2016L1779.02 358.433L1189.35 247Z" fill="white" fill-opacity="0.01"/>
</g>
<defs>
<linearGradient id="paint0_linear_210_11675" x1="781" y1="194" x2="781" y2="687" gradientUnits="userSpaceOnUse">
<stop stop-color="#475467"/>
<stop offset="1" stop-color="#475467" stop-opacity="0"/>
</linearGradient>
</defs>
</svg>
