<svg xmlns="http://www.w3.org/2000/svg" xmlns:xlink="http://www.w3.org/1999/xlink" id="Camada_2" data-name="Camada 2" viewBox="0 0 911.26 357.21"><defs><style>      .cls-1 {        fill: url(#Gradiente_sem_nome_3-3);      }      .cls-1, .cls-2, .cls-3, .cls-4, .cls-5, .cls-6, .cls-7, .cls-8 {        stroke-width: 0px;      }      .cls-2 {        fill: url(#Gradiente_sem_nome_3-2);      }      .cls-3 {        fill: url(#Gradiente_sem_nome_3-4);      }      .cls-4 {        fill: url(#Gradiente_sem_nome_3-5);      }      .cls-5 {        fill: url(#Gradiente_sem_nome_3-6);      }      .cls-6 {        fill: #fff;      }      .cls-7 {        fill: url(#Gradiente_sem_nome_3);      }      .cls-8 {        fill: #c29972;      }    </style><linearGradient id="Gradiente_sem_nome_3" data-name="Gradiente sem nome 3" x1="-11.65" y1="329.68" x2="867.27" y2="329.68" gradientUnits="userSpaceOnUse"><stop offset="0" stop-color="#000"></stop><stop offset="1" stop-color="#c29972"></stop></linearGradient><linearGradient id="Gradiente_sem_nome_3-2" data-name="Gradiente sem nome 3" x1="-11.65" y1="329.68" x2="867.27" y2="329.68" xlink:href="#Gradiente_sem_nome_3"></linearGradient><linearGradient id="Gradiente_sem_nome_3-3" data-name="Gradiente sem nome 3" x1="-11.65" y1="321.39" x2="867.27" y2="321.39" xlink:href="#Gradiente_sem_nome_3"></linearGradient><linearGradient id="Gradiente_sem_nome_3-4" data-name="Gradiente sem nome 3" x1="-11.65" y1="349.57" x2="867.27" y2="349.57" xlink:href="#Gradiente_sem_nome_3"></linearGradient><linearGradient id="Gradiente_sem_nome_3-5" data-name="Gradiente sem nome 3" x1="-11.65" y1="349.57" x2="867.27" y2="349.57" xlink:href="#Gradiente_sem_nome_3"></linearGradient><linearGradient id="Gradiente_sem_nome_3-6" data-name="Gradiente sem nome 3" x1="-11.65" y1="329.68" x2="867.27" y2="329.68" xlink:href="#Gradiente_sem_nome_3"></linearGradient></defs><g id="Camada_1-2" data-name="Camada 1"><g><g><g><path class="cls-8" d="M2,33.23l1.96-4.13c2.75,2.49,7.46,4.29,12.22,4.29,6.4,0,9.15-2.49,9.15-5.71,0-9.05-22.44-3.33-22.44-17.09C2.9,4.87,7.34,0,17.08,0c4.34,0,8.84,1.16,11.91,3.28l-1.75,4.23c-3.23-2.06-6.88-3.02-10.16-3.02-6.3,0-9,2.65-9,5.87,0,9.05,22.44,3.39,22.44,16.98,0,5.66-4.55,10.53-14.34,10.53-5.66,0-11.22-1.9-14.18-4.66Z"></path><path class="cls-8" d="M88.93,32.86v4.6h-26.88V.42h26.14v4.6h-20.85v11.38h18.57v4.5h-18.57v11.96h21.59Z"></path><path class="cls-8" d="M146.82,18.73h5.08v14.45c-3.7,3.12-8.84,4.71-14.02,4.71-11.38,0-19.74-7.99-19.74-18.94S126.5,0,137.98,0c5.87,0,10.85,1.96,14.23,5.71l-3.28,3.28c-3.07-2.96-6.56-4.29-10.74-4.29-8.57,0-14.76,5.98-14.76,14.23s6.19,14.23,14.71,14.23c3.12,0,6.03-.69,8.68-2.38v-12.06Z"></path><path class="cls-8" d="M210.58,37.46l-7.99-11.38c-.74.05-1.53.11-2.33.11h-9.15v11.27h-5.29V.42h14.45c9.63,0,15.45,4.87,15.45,12.91,0,5.71-2.96,9.84-8.15,11.69l8.78,12.43h-5.77ZM210.42,13.33c0-5.29-3.55-8.31-10.32-8.31h-9v16.67h9c6.77,0,10.32-3.07,10.32-8.36Z"></path><path class="cls-8" d="M274.97,32.86v4.6h-26.88V.42h26.14v4.6h-20.85v11.38h18.57v4.5h-18.57v11.96h21.59Z"></path><path class="cls-8" d="M307.35.42h15.61c11.91,0,20,7.51,20,18.52s-8.1,18.52-20,18.52h-15.61V.42ZM322.64,32.86c9.15,0,15.03-5.61,15.03-13.92s-5.87-13.92-15.03-13.92h-10v27.83h10Z"></path><path class="cls-8" d="M371.85,18.94c0-10.85,8.36-18.94,19.74-18.94s19.63,8.04,19.63,18.94-8.36,18.94-19.63,18.94-19.74-8.1-19.74-18.94ZM405.92,18.94c0-8.2-6.14-14.23-14.34-14.23s-14.45,6.03-14.45,14.23,6.14,14.23,14.45,14.23,14.34-6.03,14.34-14.23Z"></path><path class="cls-8" d="M439.73,33.23l1.96-4.13c2.75,2.49,7.46,4.29,12.22,4.29,6.4,0,9.15-2.49,9.15-5.71,0-9.05-22.44-3.33-22.44-17.09,0-5.71,4.45-10.58,14.18-10.58,4.34,0,8.84,1.16,11.91,3.28l-1.75,4.23c-3.23-2.06-6.88-3.02-10.16-3.02-6.3,0-9,2.65-9,5.87,0,9.05,22.44,3.39,22.44,16.98,0,5.66-4.55,10.53-14.34,10.53-5.66,0-11.22-1.9-14.18-4.66Z"></path><path class="cls-8" d="M537.83.42h15.61c11.91,0,20,7.51,20,18.52s-8.1,18.52-20,18.52h-15.61V.42ZM553.12,32.86c9.15,0,15.03-5.61,15.03-13.92s-5.87-13.92-15.03-13.92h-10v27.83h10Z"></path><path class="cls-8" d="M602.33,18.94c0-10.85,8.36-18.94,19.74-18.94s19.63,8.04,19.63,18.94-8.36,18.94-19.63,18.94-19.74-8.1-19.74-18.94ZM636.4,18.94c0-8.2-6.14-14.23-14.34-14.23s-14.45,6.03-14.45,14.23,6.14,14.23,14.45,14.23,14.34-6.03,14.34-14.23Z"></path></g><g><path class="cls-6" d="M2,69.09h72.72v6.31H17v29.28h51.06v6.19H17v35.23h57.72v6.31H2v-83.31Z"></path><path class="cls-6" d="M84.24,119.19h42.49v5.47h-42.49v-5.47Z"></path><path class="cls-6" d="M151.12,142.46c-7.78-7.42-11.66-18.11-11.66-32.07s3.87-24.14,11.6-31.48c7.74-7.34,18.86-11.01,33.38-11.01,12.06,0,21.74,2.42,29.04,7.26,7.3,4.84,11.62,11.7,12.97,20.59h-12.5c-1.27-6.82-4.44-12.12-9.52-15.89-5.08-3.77-11.54-5.65-19.4-5.65-9.84,0-17.38,3.09-22.61,9.28-5.24,6.19-7.86,15.16-7.86,26.9s2.64,21.03,7.91,27.37c5.28,6.35,12.83,9.52,22.67,9.52,7.85,0,14.3-1.86,19.34-5.59,5.04-3.73,8.19-9.05,9.46-15.95h12.5c-1.27,8.89-5.57,15.75-12.91,20.59-7.34,4.84-16.96,7.26-28.86,7.26-14.6,0-25.79-3.71-33.56-11.13Z"></path><path class="cls-6" d="M258.83,148.47c-6.9-3.41-12.18-8.35-15.83-14.82-3.65-6.47-5.47-14.22-5.47-23.27s1.82-16.52,5.47-22.91c3.65-6.39,8.93-11.25,15.83-14.58,6.9-3.33,15.11-5,24.63-5s17.73,1.67,24.64,5c6.9,3.33,12.18,8.19,15.83,14.58,3.65,6.39,5.47,14.03,5.47,22.91s-1.83,16.8-5.47,23.27c-3.65,6.47-8.93,11.41-15.83,14.82-6.9,3.41-15.11,5.12-24.64,5.12s-17.73-1.71-24.63-5.12ZM306.32,137.7c5.31-6.39,7.97-15.49,7.97-27.31s-2.66-20.61-7.97-26.84c-5.32-6.23-12.93-9.34-22.85-9.34s-17.54,3.11-22.85,9.34c-5.32,6.23-7.97,15.17-7.97,26.84s2.66,20.93,7.97,27.31c5.32,6.39,12.93,9.58,22.85,9.58s17.53-3.19,22.85-9.58Z"></path><path class="cls-6" d="M439.97,69.09v83.31h-15v-66.41l-29.99,66.41h-7.97l-33.68-67.48v67.48h-8.69v-83.31h16.3l32.97,66.53,30.11-66.53h15.95Z"></path><path class="cls-6" d="M552.79,69.09v83.31h-15v-66.41l-29.99,66.41h-7.97l-33.68-67.48v67.48h-8.69v-83.31h16.3l32.97,66.53,30.11-66.53h15.95Z"></path><path class="cls-6" d="M570.29,69.09h72.72v6.31h-57.72v29.28h51.06v6.19h-51.06v35.23h57.72v6.31h-72.72v-83.31Z"></path><path class="cls-6" d="M725.95,146.09c1.51,2.86,2.98,4.56,4.4,5.12v1.19h-15.23c-2.54-2.86-5.08-7.77-7.62-14.76-2.14-5.71-4.27-10.16-6.37-13.33-2.1-3.17-4.78-5.24-8.03-6.19h-23.09v34.28h-15v-83.31h35.58c24.6,0,36.89,8.17,36.89,24.52,0,12.14-6.86,19.8-20.59,22.97,3.01,1.51,5.57,3.67,7.68,6.49,2.1,2.82,4.14,6.65,6.13,11.49,1.98,4.84,3.73,8.69,5.24,11.54ZM670.02,111.93h20.71c6.98,0,12.38-1.41,16.19-4.23,3.81-2.82,5.71-7.52,5.71-14.1s-1.9-11.17-5.71-13.98c-3.81-2.82-9.2-4.23-16.19-4.23h-20.71v36.54Z"></path><path class="cls-6" d="M749.99,142.46c-7.78-7.42-11.66-18.11-11.66-32.07s3.87-24.14,11.6-31.48c7.74-7.34,18.86-11.01,33.38-11.01,12.06,0,21.74,2.42,29.04,7.26,7.3,4.84,11.62,11.7,12.97,20.59h-12.5c-1.27-6.82-4.44-12.12-9.52-15.89-5.08-3.77-11.54-5.65-19.4-5.65-9.84,0-17.38,3.09-22.61,9.28-5.24,6.19-7.86,15.16-7.86,26.9s2.64,21.03,7.91,27.37c5.28,6.35,12.83,9.52,22.67,9.52,7.85,0,14.3-1.86,19.34-5.59,5.04-3.73,8.19-9.05,9.46-15.95h12.5c-1.27,8.89-5.57,15.75-12.91,20.59-7.34,4.84-16.96,7.26-28.86,7.26-14.6,0-25.79-3.71-33.56-11.13Z"></path><path class="cls-6" d="M838.54,69.09h72.72v6.31h-57.72v29.28h51.06v6.19h-51.06v35.23h57.72v6.31h-72.72v-83.31Z"></path></g><g><path class="cls-8" d="M88.52,195.38v82.41h-7.06v-76.17l-36.85,76.17h-1.41L6.71,200.56v77.23H2v-82.41h9.77l33.43,71.69,34.61-71.69h8.71Z"></path><path class="cls-8" d="M129.26,195.38h7.06v82.41h-7.06v-82.41Z"></path><path class="cls-8" d="M177.05,195.38h7.06v77.93h52.5v4.47h-59.57v-82.41Z"></path><path class="cls-8" d="M270.76,195.38h7.06v82.41h-7.06v-82.41Z"></path><path class="cls-8" d="M327.32,267.72c-7.42-7.49-11.12-17.99-11.12-31.49s3.73-23.58,11.18-30.96c7.46-7.38,17.85-11.07,31.2-11.07s23.74,3.69,31.2,11.07c7.46,7.38,11.18,17.7,11.18,30.96s-3.71,24-11.13,31.49c-7.42,7.5-17.83,11.24-31.25,11.24s-23.84-3.75-31.26-11.24ZM384.59,264.43c6.2-6.71,9.3-16.11,9.3-28.19s-3.1-21.17-9.3-27.72c-6.2-6.55-14.87-9.83-26.02-9.83s-19.82,3.28-26.02,9.83c-6.2,6.55-9.3,15.79-9.3,27.72s3.1,21.48,9.3,28.19c6.2,6.71,14.87,10.07,26.02,10.07s19.82-3.36,26.02-10.07Z"></path><path class="cls-8" d="M434.15,195.38h7.42l55.45,69.46v-69.46h4.71v82.41h-1.18l-61.69-77.46v77.46h-4.71v-82.41Z"></path><path class="cls-8" d="M595.78,255.89h-50.97l-11.18,21.9h-4.59l42.97-83.58h2l40.38,83.58h-8.36l-10.24-21.9ZM593.66,251.42l-22.37-47.68-24.25,47.68h46.62ZM587.42,169.49c1.73-1.73,3.33-2.59,4.83-2.59.86,0,1.55.24,2.06.71.51.47.77,1.1.77,1.88,0,1.49-1.41,3.22-4.24,5.18l-17.89,12.48h-2.59l17.07-17.66Z"></path><path class="cls-8" d="M704.85,271.08c1.45,2.43,3.08,4.51,4.89,6.24v.47h-8.24c-1.26-1.41-2.41-3.16-3.47-5.24-1.06-2.08-2.29-4.92-3.71-8.53-2.43-6.36-4.87-11.12-7.3-14.3-2.43-3.18-5.46-5.4-9.06-6.65-.94.08-2.43.12-4.47.12h-24.72v34.61h-7.06v-82.41h31.78c10.67,0,18.89,2.06,24.66,6.18s8.65,10.03,8.65,17.72c0,6.04-1.81,11.01-5.42,14.89-3.61,3.89-8.83,6.5-15.66,7.83,3.14,1.41,5.83,3.63,8.06,6.65,2.24,3.02,4.41,7.2,6.53,12.54,1.57,4.16,3.08,7.46,4.53,9.89ZM673.71,238.71c8.32,0,14.73-1.67,19.25-5,4.51-3.33,6.77-8.14,6.77-14.42s-2.26-11.08-6.77-14.42c-4.51-3.33-10.93-5-19.25-5h-24.96v38.85h24.96Z"></path><path class="cls-8" d="M743.17,195.38h7.06v82.41h-7.06v-82.41Z"></path><path class="cls-8" d="M799.73,267.72c-7.42-7.49-11.12-17.99-11.12-31.49s3.73-23.58,11.18-30.96c7.46-7.38,17.85-11.07,31.2-11.07s23.74,3.69,31.2,11.07c7.46,7.38,11.18,17.7,11.18,30.96s-3.71,24-11.13,31.49c-7.42,7.5-17.83,11.24-31.25,11.24s-23.84-3.75-31.26-11.24ZM857,264.43c6.2-6.71,9.3-16.11,9.3-28.19s-3.1-21.17-9.3-27.72c-6.2-6.55-14.87-9.83-26.02-9.83s-19.82,3.28-26.02,9.83c-6.2,6.55-9.3,15.79-9.3,27.72s3.1,21.48,9.3,28.19c6.2,6.71,14.87,10.07,26.02,10.07s19.82-3.36,26.02-10.07Z"></path></g></g><g><g><path class="cls-7" d="M720.26,352.33l-13.09-13.09c3.18-3.96,4.94-8.93,4.94-14,0-12.35-10.05-22.39-22.39-22.39s-22.39,10.05-22.39,22.39,10.05,22.39,22.39,22.39c5.08,0,10.04-1.75,14-4.94l13.09,13.09c.46.46,1.07.72,1.73.72s1.27-.25,1.73-.72c.46-.46.72-1.07.72-1.73s-.25-1.26-.72-1.73ZM707.22,325.24c0,9.65-7.85,17.51-17.51,17.51s-17.51-7.85-17.51-17.51,7.85-17.51,17.51-17.51,17.51,7.85,17.51,17.51Z"></path><path class="cls-2" d="M797.4,354.68c-.53-6.46-3.36-12.56-7.97-17.17-2.89-2.89-6.27-5.04-10.05-6.42,4.41-3.22,6.86-8.35,6.57-13.82-.44-8.16-7.18-14.8-15.34-15.12-4.4-.18-8.56,1.41-11.73,4.46-3.17,3.05-4.92,7.15-4.92,11.54,0,5.12,2.46,9.92,6.59,12.94-3.78,1.37-7.16,3.53-10.05,6.42-4.61,4.61-7.44,10.7-7.97,17.17-.05.65.16,1.28.61,1.76.45.49,1.08.77,1.75.77,1.23,0,2.25-.94,2.35-2.19,1-11.69,10.98-20.85,22.73-20.85s21.73,9.16,22.73,20.85c.11,1.25,1.12,2.19,2.35,2.19.66,0,1.3-.28,1.75-.77.45-.48.66-1.11.61-1.76ZM781.26,318.16c0,6.23-5.07,11.29-11.29,11.29s-11.29-5.07-11.29-11.29,5.07-11.29,11.29-11.29,11.29,5.07,11.29,11.29Z"></path><g><path class="cls-1" d="M867.69,311.02h-41.91l-.64-4.77c-.31-2.33-2.33-4.1-4.68-4.1h-6.8c-1.22,0-2.21.98-2.21,2.19,0,1.23.99,2.22,2.21,2.22h6.8c.17,0,.28.1.31.28,1.24,9.53,2.56,19.13,3.85,28.64.07.5.13,1,.2,1.5.25.82.7,1.56,1.29,2.15.94.94,2.23,1.51,3.66,1.51h31.17c3.62,0,6.84-2.41,7.78-5.9l4.47-16.69c.94-3.52-1.86-7.04-5.49-7.04ZM868.93,316.91l-4.47,16.69c-.41,1.53-1.84,2.63-3.52,2.63h-29.69c-1.18,0-2.18-.88-2.34-2.05l-2.53-18.76h41.31c.92,0,1.44.7,1.23,1.49Z"></path><path class="cls-3" d="M836.93,343.63c-3.25,0-5.94,2.69-5.94,5.94s2.69,5.93,5.94,5.93,5.93-2.67,5.93-5.93-2.67-5.94-5.93-5.94ZM836.93,351.54c-1.12,0-1.99-.86-1.99-1.97s.87-1.99,1.99-1.99,1.97.87,1.97,1.99-.86,1.97-1.97,1.97Z"></path><path class="cls-4" d="M854.73,343.63c-3.25,0-5.93,2.69-5.93,5.94s2.67,5.93,5.93,5.93,5.93-2.67,5.93-5.93-2.67-5.94-5.93-5.94ZM854.73,351.54c-1.12,0-1.97-.86-1.97-1.97s.86-1.99,1.97-1.99,1.97.87,1.97,1.99-.86,1.97-1.97,1.97Z"></path></g></g><path class="cls-5" d="M647.42,331.68H2c-1.1,0-2-.9-2-2s.9-2,2-2h645.42c1.1,0,2,.9,2,2s-.9,2-2,2Z"></path></g></g></g></svg>