<svg width="278" height="289" viewBox="0 0 278 289" fill="none" xmlns="http://www.w3.org/2000/svg">
<path d="M38.2771 289H239.723C260.838 289 278 271.82 278 250.683V59.725C278 38.5881 260.838 21.4077 239.723 21.4077H224.541V10.7082C224.541 4.82133 219.734 0 213.853 0C207.972 0 203.156 4.81259 203.156 10.7082V21.4077H74.8529V10.7082C74.8529 4.82133 70.0366 0 64.1559 0C58.2751 0 53.4676 4.81259 53.4676 10.7082V21.4077H38.2859C17.1623 21.4077 0 38.5881 0 59.725V250.683C0 271.82 17.1623 289 38.2771 289ZM21.3853 59.725C21.3853 50.4143 28.9761 42.8155 38.2771 42.8155H53.4589V53.515C53.4589 59.4019 58.2664 64.2232 64.1471 64.2232C70.0279 64.2232 74.8354 59.4106 74.8354 53.515V42.8155H203.147V53.515C203.147 59.4019 207.963 64.2232 213.844 64.2232C219.725 64.2232 224.532 59.4106 224.532 53.515V42.8155H239.714C249.015 42.8155 256.606 50.4143 256.606 59.725V90.985H21.3853V59.725ZM21.3853 112.384H256.623V250.674C256.623 259.985 249.033 267.584 239.732 267.584H38.2771C28.9761 267.584 21.3853 259.985 21.3853 250.674V112.384Z" fill="#C29972"/>
</svg>
