<svg width="912" height="358" viewBox="0 0 912 358" fill="none" xmlns="http://www.w3.org/2000/svg">
<g opacity="0.1" clip-path="url(#clip0_15_12)">
<path d="M2 36.23L3.96 32.1C6.71 34.59 11.42 36.39 16.18 36.39C22.58 36.39 25.33 33.9 25.33 30.68C25.33 21.63 2.89 27.35 2.89 13.59C2.9 7.87 7.34 3 17.08 3C21.42 3 25.92 4.16 28.99 6.28L27.24 10.51C24.01 8.45 20.36 7.49 17.08 7.49C10.78 7.49 8.08 10.14 8.08 13.36C8.08 22.41 30.52 16.75 30.52 30.34C30.52 36 25.97 40.87 16.18 40.87C10.52 40.87 4.96 38.97 2 36.21V36.23Z" fill="white" fill-opacity="0.11"/>
<path d="M88.93 35.86V40.46H62.05V3.42H88.19V8.02H67.34V19.4H85.91V23.9H67.34V35.86H88.93Z" fill="white" fill-opacity="0.11"/>
<path d="M146.82 21.73H151.9V36.18C148.2 39.3 143.06 40.89 137.88 40.89C126.5 40.89 118.14 32.9 118.14 21.95C118.14 11 126.5 3 137.98 3C143.85 3 148.83 4.96 152.21 8.71L148.93 11.99C145.86 9.03 142.37 7.7 138.19 7.7C129.62 7.7 123.43 13.68 123.43 21.93C123.43 30.18 129.62 36.16 138.14 36.16C141.26 36.16 144.17 35.47 146.82 33.78V21.72V21.73Z" fill="white" fill-opacity="0.11"/>
<path d="M210.58 40.46L202.59 29.08C201.85 29.13 201.06 29.19 200.26 29.19H191.11V40.46H185.82V3.42H200.27C209.9 3.42 215.72 8.29 215.72 16.33C215.72 22.04 212.76 26.17 207.57 28.02L216.35 40.45H210.58V40.46ZM210.42 16.33C210.42 11.04 206.87 8.02 200.1 8.02H191.1V24.69H200.1C206.87 24.69 210.42 21.62 210.42 16.33Z" fill="white" fill-opacity="0.11"/>
<path d="M274.97 35.86V40.46H248.09V3.42H274.23V8.02H253.38V19.4H271.95V23.9H253.38V35.86H274.97Z" fill="white" fill-opacity="0.11"/>
<path d="M307.35 3.42H322.96C334.87 3.42 342.96 10.93 342.96 21.94C342.96 32.95 334.86 40.46 322.96 40.46H307.35V3.42ZM322.64 35.86C331.79 35.86 337.67 30.25 337.67 21.94C337.67 13.63 331.8 8.02 322.64 8.02H312.64V35.85H322.64V35.86Z" fill="white" fill-opacity="0.11"/>
<path d="M371.85 21.94C371.85 11.09 380.21 3 391.59 3C402.97 3 411.22 11.04 411.22 21.94C411.22 32.84 402.86 40.88 391.59 40.88C380.32 40.88 371.85 32.78 371.85 21.94ZM405.92 21.94C405.92 13.74 399.78 7.71 391.58 7.71C383.38 7.71 377.13 13.74 377.13 21.94C377.13 30.14 383.27 36.17 391.58 36.17C399.89 36.17 405.92 30.14 405.92 21.94Z" fill="white" fill-opacity="0.11"/>
<path d="M439.73 36.23L441.69 32.1C444.44 34.59 449.15 36.39 453.91 36.39C460.31 36.39 463.06 33.9 463.06 30.68C463.06 21.63 440.62 27.35 440.62 13.59C440.62 7.88 445.07 3.01 454.8 3.01C459.14 3.01 463.64 4.17 466.71 6.29L464.96 10.52C461.73 8.46 458.08 7.5 454.8 7.5C448.5 7.5 445.8 10.15 445.8 13.37C445.8 22.42 468.24 16.76 468.24 30.35C468.24 36.01 463.69 40.88 453.9 40.88C448.24 40.88 442.68 38.98 439.72 36.22L439.73 36.23Z" fill="white" fill-opacity="0.11"/>
<path d="M537.83 3.42H553.44C565.35 3.42 573.44 10.93 573.44 21.94C573.44 32.95 565.34 40.46 553.44 40.46H537.83V3.42ZM553.12 35.86C562.27 35.86 568.15 30.25 568.15 21.94C568.15 13.63 562.28 8.02 553.12 8.02H543.12V35.85H553.12V35.86Z" fill="white" fill-opacity="0.11"/>
<path d="M602.33 21.94C602.33 11.09 610.69 3 622.07 3C633.45 3 641.7 11.04 641.7 21.94C641.7 32.84 633.34 40.88 622.07 40.88C610.8 40.88 602.33 32.78 602.33 21.94ZM636.4 21.94C636.4 13.74 630.26 7.71 622.06 7.71C613.86 7.71 607.61 13.74 607.61 21.94C607.61 30.14 613.75 36.17 622.06 36.17C630.37 36.17 636.4 30.14 636.4 21.94Z" fill="white" fill-opacity="0.11"/>
<path d="M2 72.09H74.72V78.4H17V107.68H68.06V113.87H17V149.1H74.72V155.41H2V72.1V72.09Z" fill="white" fill-opacity="0.11"/>
<path d="M84.24 122.19H126.73V127.66H84.24V122.19Z" fill="white" fill-opacity="0.11"/>
<path d="M151.12 145.46C143.34 138.04 139.46 127.35 139.46 113.39C139.46 99.43 143.33 89.25 151.06 81.91C158.8 74.57 169.92 70.9 184.44 70.9C196.5 70.9 206.18 73.32 213.48 78.16C220.78 83 225.1 89.86 226.45 98.75H213.95C212.68 91.93 209.51 86.63 204.43 82.86C199.35 79.09 192.89 77.21 185.03 77.21C175.19 77.21 167.65 80.3 162.42 86.49C157.18 92.68 154.56 101.65 154.56 113.39C154.56 125.13 157.2 134.42 162.47 140.76C167.75 147.11 175.3 150.28 185.14 150.28C192.99 150.28 199.44 148.42 204.48 144.69C209.52 140.96 212.67 135.64 213.94 128.74H226.44C225.17 137.63 220.87 144.49 213.53 149.33C206.19 154.17 196.57 156.59 184.67 156.59C170.07 156.59 158.88 152.88 151.11 145.46H151.12Z" fill="white" fill-opacity="0.11"/>
<path d="M258.83 151.47C251.93 148.06 246.65 143.12 243 136.65C239.35 130.18 237.53 122.43 237.53 113.38C237.53 104.33 239.35 96.86 243 90.47C246.65 84.08 251.93 79.22 258.83 75.89C265.73 72.56 273.94 70.89 283.46 70.89C292.98 70.89 301.19 72.56 308.1 75.89C315 79.22 320.28 84.08 323.93 90.47C327.58 96.86 329.4 104.5 329.4 113.38C329.4 122.26 327.57 130.18 323.93 136.65C320.28 143.12 315 148.06 308.1 151.47C301.2 154.88 292.99 156.59 283.46 156.59C273.93 156.59 265.73 154.88 258.83 151.47ZM306.32 140.7C311.63 134.31 314.29 125.21 314.29 113.39C314.29 101.57 311.63 92.78 306.32 86.55C301 80.32 293.39 77.21 283.47 77.21C273.55 77.21 265.93 80.32 260.62 86.55C255.3 92.78 252.65 101.72 252.65 113.39C252.65 125.06 255.31 134.32 260.62 140.7C265.94 147.09 273.55 150.28 283.47 150.28C293.39 150.28 301 147.09 306.32 140.7Z" fill="white" fill-opacity="0.11"/>
<path d="M439.97 72.09V155.4H424.97V88.99L394.98 155.4H387.01L353.33 87.92V155.4H344.64V72.09H360.94L393.91 138.62L424.02 72.09H439.97Z" fill="white" fill-opacity="0.11"/>
<path d="M552.79 72.09V155.4H537.79V88.99L507.8 155.4H499.83L466.15 87.92V155.4H457.46V72.09H473.76L506.73 138.62L536.84 72.09H552.79Z" fill="white" fill-opacity="0.11"/>
<path d="M570.29 72.09H643.01V78.4H585.29V107.68H636.35V113.87H585.29V149.1H643.01V155.41H570.29V72.1V72.09Z" fill="white" fill-opacity="0.11"/>
<path d="M725.95 149.09C727.46 151.95 728.93 153.65 730.35 154.21V155.4H715.12C712.58 152.54 710.04 147.63 707.5 140.64C705.36 134.93 703.23 130.48 701.13 127.31C699.03 124.14 696.35 122.07 693.1 121.12H670.01V155.4H655.01V72.09H690.59C715.19 72.09 727.48 80.26 727.48 96.61C727.48 108.75 720.62 116.41 706.89 119.58C709.9 121.09 712.46 123.25 714.57 126.07C716.67 128.89 718.71 132.72 720.7 137.56C722.68 142.4 724.43 146.25 725.94 149.1L725.95 149.09ZM670.02 114.93H690.73C697.71 114.93 703.11 113.52 706.92 110.7C710.73 107.88 712.63 103.18 712.63 96.6C712.63 90.02 710.73 85.43 706.92 82.62C703.11 79.8 697.72 78.39 690.73 78.39H670.02V114.93Z" fill="white" fill-opacity="0.11"/>
<path d="M749.99 145.46C742.21 138.04 738.33 127.35 738.33 113.39C738.33 99.43 742.2 89.25 749.93 81.91C757.67 74.57 768.79 70.9 783.31 70.9C795.37 70.9 805.05 73.32 812.35 78.16C819.65 83 823.97 89.86 825.32 98.75H812.82C811.55 91.93 808.38 86.63 803.3 82.86C798.22 79.09 791.76 77.21 783.9 77.21C774.06 77.21 766.52 80.3 761.29 86.49C756.05 92.68 753.43 101.65 753.43 113.39C753.43 125.13 756.07 134.42 761.34 140.76C766.62 147.11 774.17 150.28 784.01 150.28C791.86 150.28 798.31 148.42 803.35 144.69C808.39 140.96 811.54 135.64 812.81 128.74H825.31C824.04 137.63 819.74 144.49 812.4 149.33C805.06 154.17 795.44 156.59 783.54 156.59C768.94 156.59 757.75 152.88 749.98 145.46H749.99Z" fill="white" fill-opacity="0.11"/>
<path d="M838.54 72.09H911.26V78.4H853.54V107.68H904.6V113.87H853.54V149.1H911.26V155.41H838.54V72.1V72.09Z" fill="white" fill-opacity="0.11"/>
<path d="M88.52 198.38V280.79H81.46V204.62L44.61 280.79H43.2L6.71 203.56V280.79H2V198.38H11.77L45.2 270.07L79.81 198.38H88.52Z" fill="white" fill-opacity="0.11"/>
<path d="M129.26 198.38H136.32V280.79H129.26V198.38Z" fill="white" fill-opacity="0.11"/>
<path d="M177.05 198.38H184.11V276.31H236.61V280.78H177.04V198.37L177.05 198.38Z" fill="white" fill-opacity="0.11"/>
<path d="M270.76 198.38H277.82V280.79H270.76V198.38Z" fill="white" fill-opacity="0.11"/>
<path d="M327.32 270.72C319.9 263.23 316.2 252.73 316.2 239.23C316.2 225.73 319.93 215.65 327.38 208.27C334.84 200.89 345.23 197.2 358.58 197.2C371.93 197.2 382.32 200.89 389.78 208.27C397.24 215.65 400.96 225.97 400.96 239.23C400.96 252.49 397.25 263.23 389.83 270.72C382.41 278.22 372 281.96 358.58 281.96C345.16 281.96 334.74 278.21 327.32 270.72ZM384.59 267.43C390.79 260.72 393.89 251.32 393.89 239.24C393.89 227.16 390.79 218.07 384.59 211.52C378.39 204.97 369.72 201.69 358.57 201.69C347.42 201.69 338.75 204.97 332.55 211.52C326.35 218.07 323.25 227.31 323.25 239.24C323.25 251.17 326.35 260.72 332.55 267.43C338.75 274.14 347.42 277.5 358.57 277.5C369.72 277.5 378.39 274.14 384.59 267.43Z" fill="white" fill-opacity="0.11"/>
<path d="M434.15 198.38H441.57L497.02 267.84V198.38H501.73V280.79H500.55L438.86 203.33V280.79H434.15V198.38Z" fill="white" fill-opacity="0.11"/>
<path d="M595.78 258.89H544.81L533.63 280.79H529.04L572.01 197.21H574.01L614.39 280.79H606.03L595.79 258.89H595.78ZM593.66 254.42L571.29 206.74L547.04 254.42H593.66ZM587.42 172.49C589.15 170.76 590.75 169.9 592.25 169.9C593.11 169.9 593.8 170.14 594.31 170.61C594.82 171.08 595.08 171.71 595.08 172.49C595.08 173.98 593.67 175.71 590.84 177.67L572.95 190.15H570.36L587.43 172.49H587.42Z" fill="white" fill-opacity="0.11"/>
<path d="M704.85 274.08C706.3 276.51 707.93 278.59 709.74 280.32V280.79H701.5C700.24 279.38 699.09 277.63 698.03 275.55C696.97 273.47 695.74 270.63 694.32 267.02C691.89 260.66 689.45 255.9 687.02 252.72C684.59 249.54 681.56 247.32 677.96 246.07C677.02 246.15 675.53 246.19 673.49 246.19H648.77V280.8H641.71V198.39H673.49C684.16 198.39 692.38 200.45 698.15 204.57C703.92 208.69 706.8 214.6 706.8 222.29C706.8 228.33 704.99 233.3 701.38 237.18C697.77 241.07 692.55 243.68 685.72 245.01C688.86 246.42 691.55 248.64 693.78 251.66C696.02 254.68 698.19 258.86 700.31 264.2C701.88 268.36 703.39 271.66 704.84 274.09L704.85 274.08ZM673.71 241.71C682.03 241.71 688.44 240.04 692.96 236.71C697.47 233.38 699.73 228.57 699.73 222.29C699.73 216.01 697.47 211.21 692.96 207.87C688.45 204.54 682.03 202.87 673.71 202.87H648.75V241.72H673.71V241.71Z" fill="white" fill-opacity="0.11"/>
<path d="M743.17 198.38H750.23V280.79H743.17V198.38Z" fill="white" fill-opacity="0.11"/>
<path d="M799.73 270.72C792.31 263.23 788.61 252.73 788.61 239.23C788.61 225.73 792.34 215.65 799.79 208.27C807.25 200.89 817.64 197.2 830.99 197.2C844.34 197.2 854.73 200.89 862.19 208.27C869.65 215.65 873.37 225.97 873.37 239.23C873.37 252.49 869.66 263.23 862.24 270.72C854.82 278.22 844.41 281.96 830.99 281.96C817.57 281.96 807.15 278.21 799.73 270.72ZM857 267.43C863.2 260.72 866.3 251.32 866.3 239.24C866.3 227.16 863.2 218.07 857 211.52C850.8 204.97 842.13 201.69 830.98 201.69C819.83 201.69 811.16 204.97 804.96 211.52C798.76 218.07 795.66 227.31 795.66 239.24C795.66 251.17 798.76 260.72 804.96 267.43C811.16 274.14 819.83 277.5 830.98 277.5C842.13 277.5 850.8 274.14 857 267.43Z" fill="white" fill-opacity="0.11"/>
</g>
<defs>
<clipPath id="clip0_15_12">
<rect width="911.26" height="357.21" fill="white"/>
</clipPath>
</defs>
</svg>
