<svg xmlns="http://www.w3.org/2000/svg" id="Camada_2" viewBox="0 0 318.63 330.88"><g id="Camada_1-2"><path fill='#000' d="m43.87,330.88h230.88c24.2,0,43.87-19.67,43.87-43.87V68.38c0-24.2-19.67-43.87-43.87-43.87h-17.4v-12.25c0-6.74-5.51-12.26-12.25-12.26s-12.26,5.51-12.26,12.26v12.25H85.79v-12.25c0-6.74-5.52-12.26-12.26-12.26s-12.25,5.51-12.25,12.26v12.25h-17.4C19.67,24.51,0,44.18,0,68.38v218.63c0,24.2,19.67,43.87,43.87,43.87h0ZM24.51,68.38c0-10.66,8.7-19.36,19.36-19.36h17.4v12.25c0,6.74,5.51,12.26,12.25,12.26s12.25-5.51,12.25-12.26v-12.25h147.06v12.25c0,6.74,5.52,12.26,12.26,12.26s12.25-5.51,12.25-12.26v-12.25h17.4c10.66,0,19.36,8.7,19.36,19.36v35.79H24.51v-35.79Zm0,60.29h269.61v158.33c0,10.66-8.7,19.36-19.36,19.36H43.87c-10.66,0-19.36-8.7-19.36-19.36v-158.33Z"></path></g></svg>