<svg xmlns="http://www.w3.org/2000/svg" id="Camada_2" viewBox="0 0 390 262.89"><defs><style>.cls-1{stroke:#C29972;color:#fff;stroke-miterlimit:10;stroke-width:6px;}</style></defs><g id="Camada_1-2"><path fill='#C29972' class="cls-1" d="m210.54,42.32c0,4.97-4.03,9-9,9h-13.08c-4.97,0-9-4.03-9-9s4.03-9,9-9h13.08c4.97,0,9,4.03,9,9h0Zm176.46,170.21v11.66c0,19.69-16.02,35.7-35.7,35.7H38.7c-19.69,0-35.7-16.02-35.7-35.7v-11.66c0-4.97,4.03-9,9-9h13.3c-2.3-4.5-3.61-9.59-3.61-14.98V35.98C21.68,17.79,36.48,3,54.66,3h280.68c18.18,0,32.98,14.79,32.98,32.98v152.58c0,5.39-1.31,10.48-3.61,14.98h13.3c4.97,0,9,4.03,9,9h0Zm-332.34-9h280.68c8.26,0,14.98-6.72,14.98-14.98V35.98c0-8.26-6.72-14.98-14.98-14.98H54.66c-8.26,0-14.98,6.72-14.98,14.98v152.58c0,8.26,6.72,14.98,14.98,14.98h0Zm314.34,18H21v2.66c0,9.76,7.94,17.7,17.7,17.7h312.59c9.76,0,17.7-7.94,17.7-17.7v-2.66Z"></path></g></svg>