<?xml version="1.0" standalone="no"?>
<!DOCTYPE svg PUBLIC "-//W3C//DTD SVG 20010904//EN"
 "http://www.w3.org/TR/2001/REC-SVG-20010904/DTD/svg10.dtd">
<svg version="1.0" xmlns="http://www.w3.org/2000/svg"
 width="1189.000000pt" height="1280.000000pt" viewBox="0 0 1189.000000 1280.000000"
 preserveAspectRatio="xMidYMid meet">
<metadata>
Created by potrace 1.15, written by Peter Selinger 2001-2017
</metadata>
<g transform="translate(0.000000,1280.000000) scale(0.100000,-0.100000)"
fill="#C29972" stroke="none">
<path d="M5416 12789 c-110 -26 -235 -118 -292 -215 -57 -97 -58 -106 -64
-439 l-5 -310 -50 -7 c-356 -57 -844 -186 -1139 -302 -50 -20 -91 -35 -91 -33
-1 1 -37 63 -80 137 -137 238 -163 277 -213 313 -86 63 -215 87 -307 57 -36
-12 -878 -491 -1020 -581 -106 -67 -156 -152 -163 -274 -5 -103 5 -128 140
-362 l106 -182 -37 -28 c-246 -185 -686 -632 -932 -948 -716 -918 -1128 -1955
-1246 -3135 -24 -246 -24 -825 0 -1070 109 -1083 463 -2042 1075 -2905 318
-449 736 -888 1172 -1232 1304 -1026 2978 -1460 4619 -1197 1095 175 2114 653
2961 1388 148 128 448 428 576 576 828 954 1312 2087 1441 3370 24 245 24 824
0 1070 -118 1180 -530 2217 -1246 3135 -246 316 -686 763 -932 948 l-37 28
106 182 c58 100 114 205 124 232 48 135 -2 302 -115 382 -46 33 -910 534 -994
576 -135 69 -299 44 -401 -62 -20 -21 -86 -124 -146 -227 -60 -104 -110 -190
-110 -191 -1 -2 -42 13 -92 33 -295 116 -783 245 -1139 302 l-50 7 -5 316 -5
315 -37 75 c-63 128 -174 219 -304 253 -53 14 -135 16 -545 15 -266 -1 -502
-5 -523 -10z m957 -1874 c1548 -136 2924 -967 3769 -2275 379 -587 632 -1260
737 -1960 39 -260 46 -377 46 -735 0 -358 -7 -475 -46 -735 -189 -1263 -846
-2391 -1859 -3191 -644 -509 -1437 -858 -2250 -993 -317 -52 -428 -61 -825
-61 -397 0 -508 9 -825 61 -1021 169 -1957 652 -2700 1394 -761 760 -1250
1727 -1409 2790 -39 260 -46 377 -46 735 0 358 7 475 46 735 244 1630 1278
3037 2761 3754 550 267 1119 425 1733 481 199 18 663 18 868 0z"/>
<path d="M5865 10231 c-48 -22 -79 -50 -102 -94 -17 -30 -18 -130 -23 -1649
l-5 -1618 -610 1457 c-335 801 -619 1470 -630 1486 -36 54 -70 72 -135 72 -66
0 -99 -18 -138 -76 -49 -70 -81 13 752 -1971 609 -1453 766 -1836 766 -1870 0
-89 43 -168 110 -203 102 -53 233 -6 281 100 18 38 19 130 19 2120 0 1421 -3
2092 -11 2118 -31 113 -168 177 -274 128z"/>
<path d="M3900 9499 c-36 -21 -69 -40 -73 -42 -4 -1 54 -109 129 -239 l137
-238 61 36 c34 19 67 38 75 43 11 7 -15 58 -118 237 -73 126 -136 232 -139
236 -4 4 -36 -11 -72 -33z"/>
<path d="M7867 9448 c-199 -341 -220 -381 -206 -389 8 -5 42 -24 75 -44 l61
-35 134 232 c74 128 135 235 137 238 1 3 -12 13 -30 22 -18 9 -52 28 -75 43
l-42 25 -54 -92z"/>
<path d="M2393 7997 c-22 -40 -38 -75 -35 -78 4 -4 110 -66 236 -139 176 -102
231 -129 237 -119 5 8 24 42 44 76 l35 61 -236 136 c-129 75 -236 136 -237
136 -1 -1 -21 -33 -44 -73z"/>
<path d="M9212 7933 l-232 -135 35 -61 c20 -34 39 -68 44 -75 6 -11 65 19 244
123 l237 137 -26 41 c-14 23 -33 57 -41 75 -9 17 -19 32 -22 31 -3 0 -111 -61
-239 -136z"/>
<path d="M1845 5945 l0 -85 273 0 272 0 0 85 0 85 -272 0 -273 0 0 -85z"/>
<path d="M9500 5945 l0 -85 273 0 272 0 0 85 0 85 -272 0 -273 0 0 -85z"/>
<path d="M2625 4129 c-104 -61 -209 -121 -232 -135 l-42 -24 41 -73 c23 -39
42 -73 43 -74 1 -2 108 58 238 133 l237 137 -39 71 c-22 39 -43 72 -48 73 -4
1 -93 -47 -198 -108z"/>
<path d="M9023 4173 c-21 -38 -38 -71 -38 -75 0 -8 467 -281 470 -276 1 2 20
35 43 75 l41 72 -32 19 c-77 47 -436 252 -440 252 -3 0 -23 -30 -44 -67z"/>
<path d="M3956 2674 c-75 -130 -135 -238 -134 -239 2 -1 36 -20 75 -43 l73
-41 39 67 c183 317 231 401 231 405 0 4 -111 71 -141 85 -3 1 -67 -104 -143
-234z"/>
<path d="M7722 2870 c-35 -21 -66 -40 -68 -43 -5 -5 30 -68 227 -409 l39 -67
73 41 c39 23 73 42 75 43 5 4 -268 470 -275 471 -5 1 -36 -15 -71 -36z"/>
<path d="M5860 2118 l0 -273 85 0 85 0 0 273 0 272 -85 0 -85 0 0 -272z"/>
</g>
</svg>
