<svg width="1566" height="1566" viewBox="0 0 1566 1566" fill="none" xmlns="http://www.w3.org/2000/svg">
<path d="M773.86 1216.21L773.956 1216.34M773.956 1216.34L1000.99 1518.2C1026.74 1552.44 1069.34 1569.01 1111.06 1561.02L1471.61 1491.92C1524.62 1481.76 1563 1434.79 1563 1380.07V185.926C1563 131.215 1524.62 84.2429 1471.61 74.0839L1111.06 4.98291C1069.34 -3.01309 1026.74 13.5549 1000.99 47.7949L523 683.339V783M773.956 1216.34L1043 832.83M773.956 1216.34L564.665 1514.67C539.269 1550.87 495.424 1568.78 452.379 1560.53L94.3901 1491.92C41.3818 1481.76 3 1434.79 3 1380.07V185.926C3 131.214 41.3818 84.2429 94.3902 74.0839L452.379 5.47291C495.425 -2.77709 539.269 15.1289 564.666 51.3299L773.86 349.524M523 783V16.1249M523 783V1541.34M1043 832.83V1541.34M1043 832.83V16.1249" stroke="#8C680C" stroke-opacity="0.19" stroke-width="5" stroke-linejoin="round"/>
</svg>
